<svg width="1440" height="3875" viewBox="0 0 1440 3875" fill="none" xmlns="http://www.w3.org/2000/svg">
<g clip-path="url(#clip0_720_767)">
<rect width="1440" height="3875" fill="url(#paint0_linear_720_767)"/>
<path d="M529.339 317.172C468.904 369.073 10.2225 645.097 77.2349 616.997C-84.4817 616.997 -73.8567 461.413 -73.8567 317.172C-73.8567 172.931 57.2406 56 218.957 56C380.674 56 589.775 265.271 529.339 317.172Z" fill="url(#paint1_linear_720_767)"/>
<path d="M464.339 3548.17C403.904 3600.07 -54.7775 3876.1 12.2349 3848C-149.482 3848 -138.857 3692.41 -138.857 3548.17C-138.857 3403.93 -7.75942 3287 153.957 3287C315.674 3287 524.775 3496.27 464.339 3548.17Z" fill="url(#paint2_linear_720_767)"/>
<path d="M1299.86 1932.7C1246.46 1873.58 959.023 1421.96 988.794 1488.25C984.74 1326.58 1140.54 1333.31 1284.74 1329.69C1428.93 1326.07 1549.11 1454.2 1553.17 1615.87C1557.22 1777.53 1353.26 1991.81 1299.86 1932.7Z" fill="url(#paint3_linear_720_767)"/>
<path d="M304.038 2696.24C228.593 2670.66 -242.563 2416.52 -184.25 2459.88C-266.615 2320.71 -127.311 2250.61 -3.18071 2177.14C120.95 2103.68 288.348 2156.94 370.714 2296.11C453.079 2435.28 379.484 2721.82 304.038 2696.24Z" fill="url(#paint4_linear_720_767)"/>
<path d="M1256.71 439.391C1269.18 445.328 1274.64 461.058 1263.45 469.151C1262.25 470.018 1261.01 470.835 1259.73 471.597C1251.24 476.658 1241.43 479.086 1231.56 478.574C1221.68 478.062 1212.18 474.633 1204.25 468.721C1196.32 462.809 1190.33 454.679 1187.02 445.359C1183.71 436.039 1183.25 425.948 1185.67 416.362C1188.1 406.775 1193.32 398.125 1200.67 391.503C1208.01 384.882 1217.15 380.587 1226.94 379.163C1228.41 378.948 1229.89 378.8 1231.37 378.718C1245.15 377.952 1250.83 393.605 1244.89 406.07C1238.96 418.536 1244.25 433.454 1256.71 439.391Z" fill="#2C7CE6" fill-opacity="0.55"/>
<path d="M722.855 257.497C730.992 250.328 731.82 237.45 722.083 232.676C716.188 229.785 709.781 228.084 703.228 227.669C696.675 227.255 690.104 228.135 683.891 230.26C677.679 232.385 671.945 235.712 667.018 240.053C662.092 244.394 658.068 249.662 655.177 255.558C652.287 261.453 650.585 267.86 650.171 274.413C649.756 280.966 650.637 287.537 652.761 293.75C656.27 304.01 669.15 304.811 677.287 297.643L700.071 277.57L722.855 257.497Z" fill="#2C7CE6" fill-opacity="0.55"/>
<path d="M765.502 195C765.502 197.761 763.263 200 760.502 200C757.741 200 755.502 197.761 755.502 195C755.502 192.239 757.741 190 760.502 190C763.263 190 765.502 192.239 765.502 195Z" fill="#DBF4FF"/>
<path d="M1186.5 385C1186.5 387.761 1184.26 390 1181.5 390C1178.74 390 1176.5 387.761 1176.5 385C1176.5 382.239 1178.74 380 1181.5 380C1184.26 380 1186.5 382.239 1186.5 385Z" fill="#DBF4FF"/>
<path fill-rule="evenodd" clip-rule="evenodd" d="M939.273 695.51C939.275 695.511 939.275 695.512 938.786 696.384C938.296 697.256 938.295 697.255 938.293 697.254L938.252 697.231L938.123 697.158C938.01 697.094 937.841 696.998 937.62 696.871C937.177 696.618 936.523 696.241 935.674 695.745C933.977 694.754 931.503 693.289 928.392 691.389C922.171 687.589 913.401 682.051 903.198 675.094C882.799 661.183 856.652 641.584 833.71 618.849C810.785 596.132 790.967 570.195 783.364 543.599C779.558 530.283 778.809 516.784 782.283 503.447C785.757 490.108 793.437 476.997 806.389 464.432C831.819 439.761 838.982 411.004 835.43 381.67C831.873 352.283 817.554 322.303 799.972 295.344C782.398 268.398 761.613 244.545 745.213 227.423C737.015 218.864 729.917 211.992 724.87 207.26C722.346 204.894 720.336 203.064 718.957 201.826C718.268 201.207 717.737 200.736 717.378 200.421C717.199 200.263 717.063 200.144 716.972 200.065L716.87 199.975L716.838 199.948C716.837 199.947 716.836 199.947 717.491 199.19C717.789 198.845 717.952 198.657 718.04 198.556C718.146 198.435 718.146 198.435 718.147 198.436L718.154 198.442L718.181 198.465L718.287 198.558C718.38 198.639 718.518 198.76 718.7 198.92C719.063 199.24 719.599 199.715 720.293 200.338C721.682 201.585 723.703 203.425 726.238 205.801C731.307 210.553 738.431 217.451 746.658 226.04C763.107 243.214 783.982 267.165 801.647 294.251C819.305 321.325 833.805 351.606 837.416 381.429C841.033 411.305 833.714 440.708 807.781 465.867C795.052 478.217 787.587 491.018 784.218 503.951C780.85 516.884 781.562 530.015 785.287 543.049C792.749 569.151 812.276 594.794 835.117 617.429C857.941 640.045 883.98 659.568 904.325 673.442C914.495 680.377 923.237 685.897 929.435 689.682C932.533 691.574 934.996 693.033 936.682 694.018C937.526 694.511 938.175 694.885 938.613 695.135C938.832 695.26 938.998 695.355 939.109 695.418L939.234 695.489L939.265 695.506L939.273 695.51Z" fill="url(#paint5_linear_720_767)"/>
<path d="M829.403 414.288C831.074 412.089 834.211 411.661 836.41 413.332C838.608 415.002 839.036 418.139 837.366 420.338C835.695 422.537 832.558 422.965 830.36 421.294C828.161 419.624 827.733 416.487 829.403 414.288Z" fill="#DBF4FF"/>
<path d="M924.497 687.488C926.168 685.289 929.305 684.861 931.503 686.532C933.702 688.202 934.13 691.339 932.46 693.538C930.789 695.737 927.652 696.165 925.453 694.494C923.255 692.823 922.827 689.687 924.497 687.488Z" fill="#DBF4FF"/>
<path d="M775.502 390C775.502 392.761 773.263 395 770.502 395C767.741 395 765.502 392.761 765.502 390C765.502 387.239 767.741 385 770.502 385C773.263 385 775.502 387.239 775.502 390Z" fill="#DBF4FF"/>
<path d="M1011.5 336C1011.5 338.761 1009.26 341 1006.5 341C1003.74 341 1001.5 338.761 1001.5 336C1001.5 333.239 1003.74 331 1006.5 331C1009.26 331 1011.5 333.239 1011.5 336Z" fill="#DBF4FF"/>
<path fill-rule="evenodd" clip-rule="evenodd" d="M1124.4 231.831C1111.43 234.017 1098.6 240.406 1086.22 252.229C1060.95 276.36 1032.81 281.844 1004.89 276.477C977.027 271.121 949.411 254.971 925.015 235.903C900.606 216.825 879.344 194.763 864.191 177.481C856.612 168.838 850.557 161.386 846.395 156.092C844.315 153.446 842.707 151.338 841.618 149.892C841.074 149.168 840.66 148.61 840.381 148.232C840.242 148.043 840.137 147.899 840.066 147.802L839.986 147.692L839.96 147.657C839.959 147.655 839.958 147.654 840.768 147.068C841.578 146.482 841.578 146.482 841.579 146.484L841.584 146.49L841.603 146.516L841.681 146.623C841.75 146.717 841.853 146.859 841.991 147.045C842.266 147.418 842.677 147.971 843.217 148.689C844.297 150.125 845.896 152.221 847.968 154.856C852.111 160.126 858.143 167.551 865.695 176.163C880.801 193.391 901.971 215.354 926.247 234.328C950.535 253.312 977.855 269.243 1005.27 274.513C1032.62 279.77 1060.08 274.424 1084.84 250.783C1097.47 238.721 1110.65 232.119 1124.06 229.859C1137.47 227.6 1151.02 229.69 1164.38 234.886C1191.07 245.266 1217.1 268.091 1239.91 293.795C1262.74 319.518 1282.42 348.221 1296.4 370.482C1303.38 381.614 1308.95 391.141 1312.76 397.887C1314.67 401.259 1316.14 403.937 1317.14 405.772C1317.64 406.69 1318.01 407.397 1318.27 407.875C1318.4 408.114 1318.49 408.296 1318.56 408.419L1318.65 408.593L1318.65 408.602C1318.65 408.604 1318.65 408.605 1317.77 409.068C1317.24 409.343 1317.03 409.455 1316.94 409.499C1316.88 409.53 1316.88 409.529 1316.88 409.528L1316.88 409.52L1316.86 409.486L1316.79 409.351C1316.72 409.231 1316.63 409.051 1316.5 408.814C1316.25 408.341 1315.87 407.638 1315.38 406.725C1314.39 404.9 1312.92 402.233 1311.02 398.871C1307.22 392.148 1301.67 382.648 1294.7 371.545C1280.76 349.334 1261.14 320.732 1238.42 295.122C1215.67 269.493 1189.9 246.956 1163.66 236.75C1150.56 231.654 1137.37 229.645 1124.4 231.831Z" fill="url(#paint6_linear_720_767)"/>
<path d="M880.984 186.049C880.984 188.81 878.746 191.049 875.984 191.049C873.223 191.049 870.984 188.81 870.984 186.049C870.984 183.287 873.223 181.049 875.984 181.049C878.746 181.049 880.984 183.287 880.984 186.049Z" fill="#DBF4FF"/>
<path d="M1247.98 301.049C1247.98 303.81 1245.75 306.049 1242.98 306.049C1240.22 306.049 1237.98 303.81 1237.98 301.049C1237.98 298.287 1240.22 296.049 1242.98 296.049C1245.75 296.049 1247.98 298.287 1247.98 301.049Z" fill="#DBF4FF"/>
<path d="M1399.1 3548.47C1411.56 3554.41 1417.02 3570.14 1405.83 3578.23C1404.63 3579.1 1403.39 3579.92 1402.12 3580.68C1393.62 3585.74 1383.81 3588.17 1373.94 3587.66C1364.06 3587.14 1354.56 3583.71 1346.63 3577.8C1338.71 3571.89 1332.71 3563.76 1329.4 3554.44C1326.1 3545.12 1325.63 3535.03 1328.06 3525.44C1330.49 3515.86 1335.7 3507.21 1343.05 3500.58C1350.39 3493.96 1359.54 3489.67 1369.32 3488.24C1370.8 3488.03 1372.27 3487.88 1373.75 3487.8C1387.54 3487.03 1393.21 3502.69 1387.28 3515.15V3515.15C1381.34 3527.62 1386.63 3542.53 1399.1 3548.47V3548.47Z" fill="#2C7CE6" fill-opacity="0.55"/>
<path d="M865.237 3366.58C873.374 3359.41 874.202 3346.53 864.465 3341.76V3341.76C858.57 3338.87 852.163 3337.16 845.61 3336.75C839.057 3336.34 832.486 3337.22 826.273 3339.34C820.06 3341.47 814.327 3344.79 809.4 3349.13C804.473 3353.47 800.45 3358.74 797.559 3364.64C794.668 3370.53 792.967 3376.94 792.553 3383.49C792.138 3390.05 793.018 3396.62 795.143 3402.83V3402.83C798.652 3413.09 811.532 3413.89 819.669 3406.72L842.453 3386.65L865.237 3366.58Z" fill="#2C7CE6" fill-opacity="0.55"/>
<path d="M907.884 3304.08C907.884 3306.84 905.645 3309.08 902.884 3309.08C900.122 3309.08 897.884 3306.84 897.884 3304.08C897.884 3301.32 900.122 3299.08 902.884 3299.08C905.645 3299.08 907.884 3301.32 907.884 3304.08Z" fill="#DBF4FF"/>
<path d="M1328.88 3494.08C1328.88 3496.84 1326.65 3499.08 1323.88 3499.08C1321.12 3499.08 1318.88 3496.84 1318.88 3494.08C1318.88 3491.32 1321.12 3489.08 1323.88 3489.08C1326.65 3489.08 1328.88 3491.32 1328.88 3494.08Z" fill="#DBF4FF"/>
<path fill-rule="evenodd" clip-rule="evenodd" d="M1081.65 3804.59C1081.66 3804.59 1081.66 3804.59 1081.17 3805.46C1080.68 3806.34 1080.68 3806.34 1080.68 3806.33L1080.63 3806.31L1080.51 3806.24C1080.39 3806.17 1080.22 3806.08 1080 3805.95C1079.56 3805.7 1078.9 3805.32 1078.06 3804.83C1076.36 3803.84 1073.88 3802.37 1070.77 3800.47C1064.55 3796.67 1055.78 3791.13 1045.58 3784.18C1025.18 3770.26 999.034 3750.66 976.091 3727.93C953.167 3705.21 933.349 3679.28 925.746 3652.68C921.94 3639.36 921.191 3625.86 924.665 3612.53C928.139 3599.19 935.819 3586.08 948.771 3573.51C974.2 3548.84 981.364 3520.09 977.812 3490.75C974.254 3461.36 959.936 3431.38 942.354 3404.42C924.78 3377.48 903.995 3353.63 887.595 3336.5C879.397 3327.95 872.299 3321.07 867.252 3316.34C864.728 3313.98 862.718 3312.15 861.339 3310.91C860.65 3310.29 860.118 3309.82 859.76 3309.5C859.581 3309.34 859.445 3309.22 859.354 3309.15L859.252 3309.06L859.22 3309.03C859.219 3309.03 859.218 3309.03 859.872 3308.27C860.171 3307.93 860.333 3307.74 860.422 3307.64C860.527 3307.52 860.528 3307.52 860.529 3307.52L860.536 3307.52L860.563 3307.55L860.669 3307.64C860.762 3307.72 860.9 3307.84 861.082 3308C861.445 3308.32 861.981 3308.8 862.675 3309.42C864.064 3310.67 866.085 3312.51 868.619 3314.88C873.689 3319.63 880.813 3326.53 889.039 3335.12C905.489 3352.29 926.364 3376.25 944.029 3403.33C961.686 3430.41 976.187 3460.69 979.798 3490.51C983.415 3520.39 976.096 3549.79 950.163 3574.95C937.433 3587.3 929.968 3600.1 926.6 3613.03C923.232 3625.97 923.944 3639.1 927.669 3652.13C935.13 3678.23 954.658 3703.88 977.499 3726.51C1000.32 3749.13 1026.36 3768.65 1046.71 3782.52C1056.88 3789.46 1065.62 3794.98 1071.82 3798.76C1074.92 3800.66 1077.38 3802.11 1079.06 3803.1C1079.91 3803.59 1080.56 3803.97 1080.99 3804.22C1081.21 3804.34 1081.38 3804.44 1081.49 3804.5L1081.62 3804.57L1081.65 3804.59L1081.65 3804.59Z" fill="url(#paint7_linear_720_767)"/>
<path d="M971.785 3523.37C973.456 3521.17 976.593 3520.74 978.791 3522.41C980.99 3524.08 981.418 3527.22 979.748 3529.42C978.077 3531.62 974.94 3532.05 972.741 3530.38C970.543 3528.7 970.115 3525.57 971.785 3523.37Z" fill="#DBF4FF"/>
<path d="M1066.88 3796.57C1068.55 3794.37 1071.69 3793.94 1073.89 3795.61C1076.08 3797.28 1076.51 3800.42 1074.84 3802.62C1073.17 3804.82 1070.03 3805.25 1067.84 3803.58C1065.64 3801.9 1065.21 3798.77 1066.88 3796.57Z" fill="#DBF4FF"/>
<path d="M917.884 3499.08C917.884 3501.84 915.645 3504.08 912.884 3504.08C910.122 3504.08 907.884 3501.84 907.884 3499.08C907.884 3496.32 910.122 3494.08 912.884 3494.08C915.645 3494.08 917.884 3496.32 917.884 3499.08Z" fill="#DBF4FF"/>
<path d="M1153.88 3445.08C1153.88 3447.84 1151.64 3450.08 1148.88 3450.08C1146.12 3450.08 1143.88 3447.84 1143.88 3445.08C1143.88 3442.32 1146.12 3440.08 1148.88 3440.08C1151.64 3440.08 1153.88 3442.32 1153.88 3445.08Z" fill="#DBF4FF"/>
<path fill-rule="evenodd" clip-rule="evenodd" d="M1266.78 3340.91C1253.81 3343.1 1240.98 3349.49 1228.6 3361.31C1203.33 3385.44 1175.19 3390.93 1147.27 3385.56C1119.41 3380.2 1091.79 3364.05 1067.4 3344.98C1042.99 3325.91 1021.73 3303.84 1006.57 3286.56C998.994 3277.92 992.939 3270.47 988.777 3265.17C986.696 3262.53 985.089 3260.42 984 3258.97C983.456 3258.25 983.042 3257.69 982.763 3257.31C982.624 3257.12 982.518 3256.98 982.448 3256.88L982.367 3256.77L982.342 3256.74C982.34 3256.74 982.34 3256.74 983.15 3256.15C983.96 3255.56 983.96 3255.56 983.961 3255.56L983.966 3255.57L983.985 3255.6L984.063 3255.7C984.132 3255.8 984.235 3255.94 984.373 3256.13C984.648 3256.5 985.058 3257.05 985.599 3257.77C986.679 3259.21 988.278 3261.3 990.35 3263.94C994.493 3269.21 1000.52 3276.63 1008.08 3285.24C1023.18 3302.47 1044.35 3324.43 1068.63 3343.41C1092.92 3362.39 1120.24 3378.32 1147.65 3383.59C1175 3388.85 1202.46 3383.5 1227.22 3359.86C1239.85 3347.8 1253.03 3341.2 1266.45 3338.94C1279.85 3336.68 1293.41 3338.77 1306.77 3343.97C1333.45 3354.35 1359.48 3377.17 1382.29 3402.88C1405.12 3428.6 1424.81 3457.3 1438.78 3479.56C1445.77 3490.7 1451.33 3500.22 1455.14 3506.97C1457.05 3510.34 1458.52 3513.02 1459.52 3514.85C1460.02 3515.77 1460.4 3516.48 1460.65 3516.96C1460.78 3517.2 1460.87 3517.38 1460.94 3517.5L1461.03 3517.67L1461.03 3517.68C1461.04 3517.68 1461.04 3517.69 1460.15 3518.15C1459.62 3518.42 1459.41 3518.54 1459.32 3518.58C1459.26 3518.61 1459.26 3518.61 1459.26 3518.61L1459.26 3518.6L1459.24 3518.57L1459.17 3518.43C1459.11 3518.31 1459.01 3518.13 1458.88 3517.9C1458.63 3517.42 1458.26 3516.72 1457.76 3515.81C1456.77 3513.98 1455.31 3511.31 1453.4 3507.95C1449.6 3501.23 1444.05 3491.73 1437.08 3480.63C1423.14 3458.42 1403.52 3429.81 1380.8 3404.2C1358.05 3378.57 1332.28 3356.04 1306.04 3345.83C1292.94 3340.73 1279.75 3338.73 1266.78 3340.91Z" fill="url(#paint8_linear_720_767)"/>
<path d="M1023.37 3295.13C1023.37 3297.89 1021.13 3300.13 1018.37 3300.13C1015.6 3300.13 1013.37 3297.89 1013.37 3295.13C1013.37 3292.37 1015.6 3290.13 1018.37 3290.13C1021.13 3290.13 1023.37 3292.37 1023.37 3295.13Z" fill="#DBF4FF"/>
<path d="M1390.37 3410.13C1390.37 3412.89 1388.13 3415.13 1385.37 3415.13C1382.6 3415.13 1380.37 3412.89 1380.37 3410.13C1380.37 3407.37 1382.6 3405.13 1385.37 3405.13C1388.13 3405.13 1390.37 3407.37 1390.37 3410.13Z" fill="#DBF4FF"/>
<path d="M589.715 1130.39C602.181 1136.33 607.639 1152.06 596.452 1160.15C595.253 1161.02 594.013 1161.83 592.734 1162.6C584.238 1167.66 574.432 1170.09 564.556 1169.57C554.681 1169.06 545.178 1165.63 537.251 1159.72C529.324 1153.81 523.328 1145.68 520.022 1136.36C516.715 1127.04 516.247 1116.95 518.675 1107.36C521.104 1097.78 526.321 1089.12 533.666 1082.5C541.011 1075.88 550.155 1071.59 559.941 1070.16C561.414 1069.95 562.891 1069.8 564.369 1069.72C578.155 1068.95 583.831 1084.6 577.894 1097.07C571.957 1109.54 577.249 1124.45 589.715 1130.39Z" fill="#2C7CE6" fill-opacity="0.55"/>
<path d="M55.8553 948.497C63.9919 941.328 64.82 928.45 55.0834 923.676C49.1879 920.785 42.7807 919.084 36.2277 918.669C29.6747 918.255 23.1042 919.135 16.8914 921.26C10.6786 923.385 4.94513 926.712 0.0183522 931.053C-4.90842 935.394 -8.93202 940.662 -11.8227 946.558C-14.7134 952.453 -16.4146 958.86 -16.8291 965.413C-17.2436 971.966 -16.3633 978.537 -14.2386 984.75C-10.7295 995.01 2.15046 995.811 10.2871 988.643L33.0712 968.57L55.8553 948.497Z" fill="#2C7CE6" fill-opacity="0.55"/>
<path d="M98.502 886C98.502 888.761 96.2634 891 93.502 891C90.7405 891 88.502 888.761 88.502 886C88.502 883.239 90.7405 881 93.502 881C96.2634 881 98.502 883.239 98.502 886Z" fill="#DBF4FF"/>
<path d="M519.502 1076C519.502 1078.76 517.263 1081 514.502 1081C511.741 1081 509.502 1078.76 509.502 1076C509.502 1073.24 511.741 1071 514.502 1071C517.263 1071 519.502 1073.24 519.502 1076Z" fill="#DBF4FF"/>
<path fill-rule="evenodd" clip-rule="evenodd" d="M272.273 1386.51C272.275 1386.51 272.275 1386.51 271.786 1387.38C271.296 1388.26 271.295 1388.25 271.293 1388.25L271.252 1388.23L271.123 1388.16C271.01 1388.09 270.841 1388 270.62 1387.87C270.177 1387.62 269.523 1387.24 268.674 1386.75C266.977 1385.75 264.503 1384.29 261.392 1382.39C255.171 1378.59 246.401 1373.05 236.198 1366.09C215.799 1352.18 189.652 1332.58 166.71 1309.85C143.785 1287.13 123.967 1261.2 116.364 1234.6C112.558 1221.28 111.809 1207.78 115.283 1194.45C118.757 1181.11 126.437 1168 139.389 1155.43C164.819 1130.76 171.982 1102 168.43 1072.67C164.873 1043.28 150.554 1013.3 132.972 986.344C115.398 959.398 94.6133 935.545 78.2133 918.423C70.015 909.864 62.9169 902.992 57.8697 898.26C55.3463 895.894 53.3357 894.064 51.9572 892.826C51.2679 892.207 50.7366 891.736 50.3782 891.421C50.199 891.263 50.063 891.144 49.9721 891.065L49.8698 890.975L49.8382 890.948C49.837 890.947 49.8365 890.947 50.4905 890.19C50.7891 889.845 50.9515 889.657 51.0401 889.556C51.1456 889.435 51.1463 889.435 51.1473 889.436L51.1542 889.442L51.1813 889.465L51.287 889.558C51.3802 889.639 51.5185 889.76 51.7 889.92C52.0631 890.24 52.5992 890.715 53.2934 891.338C54.6819 892.585 56.703 894.425 59.2376 896.801C64.3067 901.553 71.4309 908.451 79.6576 917.04C96.1073 934.214 116.982 958.165 134.647 985.251C152.305 1012.33 166.805 1042.61 170.416 1072.43C174.033 1102.31 166.714 1131.71 140.781 1156.87C128.052 1169.22 120.587 1182.02 117.218 1194.95C113.85 1207.88 114.562 1221.02 118.287 1234.05C125.749 1260.15 145.276 1285.79 168.117 1308.43C190.941 1331.05 216.98 1350.57 237.325 1364.44C247.495 1371.38 256.237 1376.9 262.435 1380.68C265.533 1382.57 267.996 1384.03 269.682 1385.02C270.526 1385.51 271.175 1385.88 271.613 1386.14C271.832 1386.26 271.998 1386.35 272.109 1386.42L272.234 1386.49L272.265 1386.51L272.273 1386.51Z" fill="url(#paint9_linear_720_767)"/>
<path d="M162.403 1105.29C164.074 1103.09 167.211 1102.66 169.41 1104.33C171.608 1106 172.036 1109.14 170.366 1111.34C168.695 1113.54 165.558 1113.96 163.36 1112.29C161.161 1110.62 160.733 1107.49 162.403 1105.29Z" fill="#DBF4FF"/>
<path d="M257.497 1378.49C259.168 1376.29 262.305 1375.86 264.503 1377.53C266.702 1379.2 267.13 1382.34 265.46 1384.54C263.789 1386.74 260.652 1387.16 258.453 1385.49C256.255 1383.82 255.827 1380.69 257.497 1378.49Z" fill="#DBF4FF"/>
<path d="M108.502 1081C108.502 1083.76 106.263 1086 103.502 1086C100.741 1086 98.502 1083.76 98.502 1081C98.502 1078.24 100.741 1076 103.502 1076C106.263 1076 108.502 1078.24 108.502 1081Z" fill="#DBF4FF"/>
<path d="M344.502 1027C344.502 1029.76 342.263 1032 339.502 1032C336.741 1032 334.502 1029.76 334.502 1027C334.502 1024.24 336.741 1022 339.502 1022C342.263 1022 344.502 1024.24 344.502 1027Z" fill="#DBF4FF"/>
<path fill-rule="evenodd" clip-rule="evenodd" d="M457.396 922.831C444.429 925.017 431.598 931.406 419.218 943.229C393.95 967.36 365.81 972.844 337.888 967.477C310.027 962.121 282.411 945.971 258.015 926.903C233.606 907.825 212.344 885.763 197.191 868.481C189.612 859.838 183.557 852.386 179.395 847.092C177.315 844.446 175.707 842.338 174.618 840.892C174.074 840.168 173.66 839.61 173.381 839.232C173.242 839.043 173.137 838.899 173.066 838.802L172.986 838.692L172.96 838.657C172.959 838.655 172.958 838.654 173.768 838.068C174.578 837.482 174.578 837.482 174.579 837.484L174.584 837.49L174.603 837.516L174.681 837.623C174.75 837.717 174.853 837.859 174.991 838.045C175.266 838.418 175.677 838.971 176.217 839.689C177.297 841.125 178.896 843.221 180.968 845.856C185.111 851.126 191.143 858.551 198.695 867.163C213.801 884.391 234.971 906.354 259.247 925.328C283.535 944.312 310.855 960.243 338.266 965.513C365.615 970.77 393.081 965.424 417.836 941.783C430.467 929.721 443.652 923.119 457.064 920.859C470.469 918.6 484.024 920.69 497.383 925.886C524.07 936.266 550.102 959.091 572.912 984.795C595.74 1010.52 615.424 1039.22 629.396 1061.48C636.384 1072.61 641.946 1082.14 645.763 1088.89C647.671 1092.26 649.143 1094.94 650.138 1096.77C650.636 1097.69 651.014 1098.4 651.269 1098.88C651.396 1099.11 651.492 1099.3 651.556 1099.42L651.648 1099.59L651.653 1099.6C651.654 1099.6 651.654 1099.6 650.768 1100.07C650.241 1100.34 650.027 1100.45 649.94 1100.5C649.881 1100.53 649.881 1100.53 649.88 1100.53L649.876 1100.52L649.858 1100.49L649.787 1100.35C649.724 1100.23 649.629 1100.05 649.503 1099.81C649.251 1099.34 648.875 1098.64 648.38 1097.73C647.39 1095.9 645.924 1093.23 644.022 1089.87C640.218 1083.15 634.671 1073.65 627.702 1062.54C613.761 1040.33 594.143 1011.73 571.416 986.122C548.672 960.493 522.896 937.956 496.658 927.75C483.556 922.654 470.369 920.645 457.396 922.831Z" fill="url(#paint10_linear_720_767)"/>
<path d="M213.984 877.049C213.984 879.81 211.746 882.049 208.984 882.049C206.223 882.049 203.984 879.81 203.984 877.049C203.984 874.287 206.223 872.049 208.984 872.049C211.746 872.049 213.984 874.287 213.984 877.049Z" fill="#DBF4FF"/>
<path d="M580.984 992.049C580.984 994.81 578.746 997.049 575.984 997.049C573.223 997.049 570.984 994.81 570.984 992.049C570.984 989.287 573.223 987.049 575.984 987.049C578.746 987.049 580.984 989.287 580.984 992.049Z" fill="#DBF4FF"/>
<path d="M1340.1 1913.47C1352.56 1919.41 1358.02 1935.14 1346.83 1943.23C1345.63 1944.1 1344.39 1944.92 1343.12 1945.68C1334.62 1950.74 1324.81 1953.17 1314.94 1952.66C1305.06 1952.14 1295.56 1948.71 1287.63 1942.8C1279.71 1936.89 1273.71 1928.76 1270.4 1919.44C1267.1 1910.12 1266.63 1900.03 1269.06 1890.44C1271.49 1880.86 1276.7 1872.21 1284.05 1865.58C1291.39 1858.96 1300.54 1854.67 1310.32 1853.24C1311.8 1853.03 1313.27 1852.88 1314.75 1852.8C1328.54 1852.03 1334.21 1867.69 1328.28 1880.15C1322.34 1892.62 1327.63 1907.53 1340.1 1913.47Z" fill="#2C7CE6" fill-opacity="0.55"/>
<path d="M806.237 1731.58C814.374 1724.41 815.202 1711.53 805.465 1706.76C799.57 1703.87 793.163 1702.17 786.61 1701.75C780.057 1701.34 773.486 1702.22 767.273 1704.34C761.06 1706.47 755.327 1709.79 750.4 1714.13C745.473 1718.47 741.45 1723.74 738.559 1729.64C735.668 1735.53 733.967 1741.94 733.553 1748.49C733.138 1755.05 734.018 1761.62 736.143 1767.83C739.652 1778.09 752.532 1778.89 760.669 1771.72L783.453 1751.65L806.237 1731.58Z" fill="#2C7CE6" fill-opacity="0.55"/>
<path d="M848.884 1669.08C848.884 1671.84 846.645 1674.08 843.884 1674.08C841.122 1674.08 838.884 1671.84 838.884 1669.08C838.884 1666.32 841.122 1664.08 843.884 1664.08C846.645 1664.08 848.884 1666.32 848.884 1669.08Z" fill="#DBF4FF"/>
<path d="M1269.88 1859.08C1269.88 1861.84 1267.65 1864.08 1264.88 1864.08C1262.12 1864.08 1259.88 1861.84 1259.88 1859.08C1259.88 1856.32 1262.12 1854.08 1264.88 1854.08C1267.65 1854.08 1269.88 1856.32 1269.88 1859.08Z" fill="#DBF4FF"/>
<path fill-rule="evenodd" clip-rule="evenodd" d="M1022.65 2169.59C1022.66 2169.59 1022.66 2169.59 1022.17 2170.46C1021.68 2171.34 1021.68 2171.34 1021.68 2171.33L1021.63 2171.31L1021.51 2171.24C1021.39 2171.17 1021.22 2171.08 1021 2170.95C1020.56 2170.7 1019.9 2170.32 1019.06 2169.83C1017.36 2168.83 1014.88 2167.37 1011.77 2165.47C1005.55 2161.67 996.782 2156.13 986.58 2149.17C966.181 2135.26 940.034 2115.66 917.091 2092.93C894.167 2070.21 874.349 2044.28 866.746 2017.68C862.94 2004.36 862.191 1990.86 865.665 1977.53C869.139 1964.19 876.819 1951.08 889.771 1938.51C915.2 1913.84 922.364 1885.09 918.812 1855.75C915.254 1826.36 900.936 1796.38 883.354 1769.42C865.78 1742.48 844.995 1718.63 828.595 1701.5C820.397 1692.95 813.299 1686.07 808.252 1681.34C805.728 1678.98 803.718 1677.14 802.339 1675.91C801.65 1675.29 801.118 1674.82 800.76 1674.5C800.581 1674.34 800.445 1674.22 800.354 1674.15L800.252 1674.06L800.22 1674.03C800.219 1674.03 800.218 1674.03 800.872 1673.27C801.171 1672.93 801.333 1672.74 801.422 1672.64C801.527 1672.52 801.528 1672.52 801.529 1672.52L801.536 1672.52L801.563 1672.55L801.669 1672.64C801.762 1672.72 801.9 1672.84 802.082 1673C802.445 1673.32 802.981 1673.8 803.675 1674.42C805.064 1675.67 807.085 1677.51 809.619 1679.88C814.689 1684.63 821.813 1691.53 830.039 1700.12C846.489 1717.29 867.364 1741.25 885.029 1768.33C902.686 1795.41 917.187 1825.69 920.798 1855.51C924.415 1885.39 917.096 1914.79 891.163 1939.95C878.433 1952.3 870.968 1965.1 867.6 1978.03C864.232 1990.97 864.944 2004.1 868.669 2017.13C876.13 2043.23 895.658 2068.88 918.499 2091.51C941.323 2114.13 967.362 2133.65 987.707 2147.52C997.877 2154.46 1006.62 2159.98 1012.82 2163.76C1015.92 2165.66 1018.38 2167.11 1020.06 2168.1C1020.91 2168.59 1021.56 2168.97 1021.99 2169.22C1022.21 2169.34 1022.38 2169.44 1022.49 2169.5L1022.62 2169.57L1022.65 2169.59L1022.65 2169.59Z" fill="url(#paint11_linear_720_767)"/>
<path d="M912.785 1888.37C914.456 1886.17 917.593 1885.74 919.791 1887.41C921.99 1889.08 922.418 1892.22 920.748 1894.42C919.077 1896.62 915.94 1897.05 913.741 1895.38C911.543 1893.7 911.115 1890.57 912.785 1888.37Z" fill="#DBF4FF"/>
<path d="M1007.88 2161.57C1009.55 2159.37 1012.69 2158.94 1014.89 2160.61C1017.08 2162.28 1017.51 2165.42 1015.84 2167.62C1014.17 2169.82 1011.03 2170.25 1008.84 2168.58C1006.64 2166.9 1006.21 2163.77 1007.88 2161.57Z" fill="#DBF4FF"/>
<path d="M858.884 1864.08C858.884 1866.84 856.645 1869.08 853.884 1869.08C851.122 1869.08 848.884 1866.84 848.884 1864.08C848.884 1861.32 851.122 1859.08 853.884 1859.08C856.645 1859.08 858.884 1861.32 858.884 1864.08Z" fill="#DBF4FF"/>
<path d="M1094.88 1810.08C1094.88 1812.84 1092.65 1815.08 1089.88 1815.08C1087.12 1815.08 1084.88 1812.84 1084.88 1810.08C1084.88 1807.32 1087.12 1805.08 1089.88 1805.08C1092.65 1805.08 1094.88 1807.32 1094.88 1810.08Z" fill="#DBF4FF"/>
<path fill-rule="evenodd" clip-rule="evenodd" d="M1207.78 1705.91C1194.81 1708.1 1181.98 1714.49 1169.6 1726.31C1144.33 1750.44 1116.19 1755.93 1088.27 1750.56C1060.41 1745.2 1032.79 1729.05 1008.4 1709.98C983.988 1690.91 962.726 1668.84 947.573 1651.56C939.994 1642.92 933.939 1635.47 929.777 1630.17C927.696 1627.53 926.089 1625.42 925 1623.97C924.456 1623.25 924.042 1622.69 923.763 1622.31C923.624 1622.12 923.518 1621.98 923.448 1621.88L923.367 1621.77L923.342 1621.74C923.34 1621.74 923.34 1621.74 924.15 1621.15C924.96 1620.56 924.96 1620.56 924.961 1620.56L924.966 1620.57L924.985 1620.6L925.063 1620.7C925.132 1620.8 925.235 1620.94 925.373 1621.13C925.648 1621.5 926.058 1622.05 926.599 1622.77C927.679 1624.21 929.278 1626.3 931.35 1628.94C935.493 1634.21 941.525 1641.63 949.077 1650.24C964.183 1667.47 985.353 1689.43 1009.63 1708.41C1033.92 1727.39 1061.24 1743.32 1088.65 1748.59C1116 1753.85 1143.46 1748.5 1168.22 1724.86C1180.85 1712.8 1194.03 1706.2 1207.45 1703.94C1220.85 1701.68 1234.41 1703.77 1247.77 1708.97C1274.45 1719.35 1300.48 1742.17 1323.29 1767.88C1346.12 1793.6 1365.81 1822.3 1379.78 1844.56C1386.77 1855.7 1392.33 1865.22 1396.14 1871.97C1398.05 1875.34 1399.52 1878.02 1400.52 1879.85C1401.02 1880.77 1401.4 1881.48 1401.65 1881.96C1401.78 1882.2 1401.87 1882.38 1401.94 1882.5L1402.03 1882.67L1402.03 1882.68C1402.04 1882.68 1402.04 1882.69 1401.15 1883.15C1400.62 1883.42 1400.41 1883.54 1400.32 1883.58C1400.26 1883.61 1400.26 1883.61 1400.26 1883.61L1400.26 1883.6L1400.24 1883.57L1400.17 1883.43C1400.11 1883.31 1400.01 1883.13 1399.88 1882.9C1399.63 1882.42 1399.26 1881.72 1398.76 1880.81C1397.77 1878.98 1396.31 1876.31 1394.4 1872.95C1390.6 1866.23 1385.05 1856.73 1378.08 1845.63C1364.14 1823.42 1344.52 1794.81 1321.8 1769.2C1299.05 1743.57 1273.28 1721.04 1247.04 1710.83C1233.94 1705.73 1220.75 1703.73 1207.78 1705.91Z" fill="url(#paint12_linear_720_767)"/>
<path d="M964.366 1660.13C964.366 1662.89 962.128 1665.13 959.366 1665.13C956.605 1665.13 954.366 1662.89 954.366 1660.13C954.366 1657.37 956.605 1655.13 959.366 1655.13C962.128 1655.13 964.366 1657.37 964.366 1660.13Z" fill="#DBF4FF"/>
<path d="M1331.37 1775.13C1331.37 1777.89 1329.13 1780.13 1326.37 1780.13C1323.6 1780.13 1321.37 1777.89 1321.37 1775.13C1321.37 1772.37 1323.6 1770.13 1326.37 1770.13C1329.13 1770.13 1331.37 1772.37 1331.37 1775.13Z" fill="#DBF4FF"/>
<path d="M720.097 2668.47C732.562 2674.41 738.021 2690.14 726.834 2698.23C725.635 2699.1 724.394 2699.92 723.116 2700.68C714.62 2705.74 704.814 2708.17 694.938 2707.66C685.062 2707.14 675.56 2703.71 667.633 2697.8C659.706 2691.89 653.71 2683.76 650.404 2674.44C647.097 2665.12 646.629 2655.03 649.057 2645.44C651.486 2635.86 656.703 2627.21 664.048 2620.58C671.393 2613.96 680.537 2609.67 690.323 2608.24C691.796 2608.03 693.273 2607.88 694.751 2607.8C708.537 2607.03 714.212 2622.69 708.276 2635.15C702.339 2647.62 707.631 2662.53 720.097 2668.47Z" fill="#2C7CE6" fill-opacity="0.55"/>
<path d="M186.237 2486.58C194.374 2479.41 195.202 2466.53 185.465 2461.76C179.57 2458.87 173.163 2457.16 166.61 2456.75C160.057 2456.34 153.486 2457.22 147.273 2459.34C141.06 2461.47 135.327 2464.79 130.4 2469.13C125.473 2473.47 121.45 2478.74 118.559 2484.64C115.668 2490.53 113.967 2496.94 113.553 2503.49C113.138 2510.05 114.018 2516.62 116.143 2522.83C119.652 2533.09 132.532 2533.89 140.669 2526.72L163.453 2506.65L186.237 2486.58Z" fill="#2C7CE6" fill-opacity="0.55"/>
<path d="M228.884 2424.08C228.884 2426.84 226.645 2429.08 223.884 2429.08C221.122 2429.08 218.884 2426.84 218.884 2424.08C218.884 2421.32 221.122 2419.08 223.884 2419.08C226.645 2419.08 228.884 2421.32 228.884 2424.08Z" fill="#DBF4FF"/>
<path d="M649.884 2614.08C649.884 2616.84 647.645 2619.08 644.884 2619.08C642.122 2619.08 639.884 2616.84 639.884 2614.08C639.884 2611.32 642.122 2609.08 644.884 2609.08C647.645 2609.08 649.884 2611.32 649.884 2614.08Z" fill="#DBF4FF"/>
<path fill-rule="evenodd" clip-rule="evenodd" d="M402.655 2924.59C402.656 2924.59 402.657 2924.59 402.168 2925.46C401.678 2926.34 401.677 2926.34 401.675 2926.33L401.634 2926.31L401.505 2926.24C401.392 2926.17 401.223 2926.08 401.002 2925.95C400.559 2925.7 399.904 2925.32 399.056 2924.83C397.359 2923.83 394.885 2922.37 391.774 2920.47C385.553 2916.67 376.782 2911.13 366.58 2904.17C346.181 2890.26 320.034 2870.66 297.091 2847.93C274.167 2825.21 254.349 2799.28 246.746 2772.68C242.94 2759.36 242.191 2745.86 245.665 2732.53C249.139 2719.19 256.819 2706.08 269.771 2693.51C295.2 2668.84 302.364 2640.09 298.812 2610.75C295.254 2581.36 280.936 2551.38 263.354 2524.42C245.78 2497.48 224.995 2473.63 208.595 2456.5C200.397 2447.95 193.299 2441.07 188.252 2436.34C185.728 2433.98 183.718 2432.14 182.339 2430.91C181.65 2430.29 181.118 2429.82 180.76 2429.5C180.581 2429.34 180.445 2429.22 180.354 2429.15L180.252 2429.06L180.22 2429.03C180.219 2429.03 180.218 2429.03 180.872 2428.27C181.171 2427.93 181.333 2427.74 181.422 2427.64C181.527 2427.52 181.528 2427.52 181.529 2427.52L181.536 2427.52L181.563 2427.55L181.669 2427.64C181.762 2427.72 181.9 2427.84 182.082 2428C182.445 2428.32 182.981 2428.8 183.675 2429.42C185.064 2430.67 187.085 2432.51 189.619 2434.88C194.689 2439.63 201.813 2446.53 210.039 2455.12C226.489 2472.29 247.364 2496.25 265.029 2523.33C282.686 2550.41 297.187 2580.69 300.798 2610.51C304.415 2640.39 297.096 2669.79 271.163 2694.95C258.433 2707.3 250.968 2720.1 247.6 2733.03C244.232 2745.97 244.944 2759.1 248.669 2772.13C256.13 2798.23 275.658 2823.88 298.499 2846.51C321.323 2869.13 347.362 2888.65 367.707 2902.52C377.877 2909.46 386.619 2914.98 392.817 2918.76C395.915 2920.66 398.378 2922.11 400.064 2923.1C400.908 2923.59 401.557 2923.97 401.995 2924.22C402.214 2924.34 402.38 2924.44 402.491 2924.5L402.616 2924.57L402.647 2924.59L402.655 2924.59Z" fill="url(#paint13_linear_720_767)"/>
<path d="M292.785 2643.37C294.456 2641.17 297.593 2640.74 299.791 2642.41C301.99 2644.08 302.418 2647.22 300.748 2649.42C299.077 2651.62 295.94 2652.05 293.741 2650.38C291.543 2648.7 291.115 2645.57 292.785 2643.37Z" fill="#DBF4FF"/>
<path d="M387.879 2916.57C389.55 2914.37 392.686 2913.94 394.885 2915.61C397.084 2917.28 397.512 2920.42 395.841 2922.62C394.171 2924.82 391.034 2925.25 388.835 2923.58C386.637 2921.9 386.208 2918.77 387.879 2916.57Z" fill="#DBF4FF"/>
<path d="M238.884 2619.08C238.884 2621.84 236.645 2624.08 233.884 2624.08C231.122 2624.08 228.884 2621.84 228.884 2619.08C228.884 2616.32 231.122 2614.08 233.884 2614.08C236.645 2614.08 238.884 2616.32 238.884 2619.08Z" fill="#DBF4FF"/>
<path d="M474.884 2565.08C474.884 2567.84 472.645 2570.08 469.884 2570.08C467.122 2570.08 464.884 2567.84 464.884 2565.08C464.884 2562.32 467.122 2560.08 469.884 2560.08C472.645 2560.08 474.884 2562.32 474.884 2565.08Z" fill="#DBF4FF"/>
<path fill-rule="evenodd" clip-rule="evenodd" d="M587.778 2460.91C574.811 2463.1 561.98 2469.49 549.599 2481.31C524.332 2505.44 496.192 2510.93 468.27 2505.56C440.409 2500.2 412.792 2484.05 388.397 2464.98C363.988 2445.91 342.726 2423.84 327.573 2406.56C319.994 2397.92 313.939 2390.47 309.777 2385.17C307.696 2382.53 306.089 2380.42 305 2378.97C304.456 2378.25 304.042 2377.69 303.763 2377.31C303.624 2377.12 303.518 2376.98 303.448 2376.88L303.367 2376.77L303.342 2376.74C303.34 2376.74 303.34 2376.74 304.15 2376.15C304.96 2375.56 304.96 2375.56 304.961 2375.56L304.966 2375.57L304.985 2375.6L305.063 2375.7C305.132 2375.8 305.235 2375.94 305.373 2376.13C305.648 2376.5 306.058 2377.05 306.599 2377.77C307.679 2379.21 309.278 2381.3 311.35 2383.94C315.493 2389.21 321.525 2396.63 329.077 2405.24C344.183 2422.47 365.353 2444.43 389.628 2463.41C413.917 2482.39 441.237 2498.32 468.648 2503.59C495.997 2508.85 523.463 2503.5 548.218 2479.86C560.849 2467.8 574.034 2461.2 587.445 2458.94C600.85 2456.68 614.406 2458.77 627.765 2463.97C654.451 2474.35 680.484 2497.17 703.294 2522.88C726.122 2548.6 745.806 2577.3 759.778 2599.56C766.766 2610.7 772.328 2620.22 776.144 2626.97C778.053 2630.34 779.524 2633.02 780.52 2634.85C781.017 2635.77 781.396 2636.48 781.65 2636.96C781.778 2637.2 781.874 2637.38 781.938 2637.5L782.03 2637.67L782.034 2637.68C782.036 2637.68 782.036 2637.69 781.15 2638.15C780.622 2638.42 780.409 2638.54 780.322 2638.58C780.263 2638.61 780.262 2638.61 780.262 2638.61L780.258 2638.6L780.24 2638.57L780.169 2638.43C780.106 2638.31 780.011 2638.13 779.885 2637.9C779.633 2637.42 779.257 2636.72 778.762 2635.81C777.772 2633.98 776.306 2631.31 774.404 2627.95C770.6 2621.23 765.053 2611.73 758.084 2600.63C744.143 2578.42 724.525 2549.81 701.798 2524.2C679.053 2498.57 653.278 2476.04 627.04 2465.83C613.937 2460.73 600.751 2458.73 587.778 2460.91Z" fill="url(#paint14_linear_720_767)"/>
<path d="M344.366 2415.13C344.366 2417.89 342.128 2420.13 339.366 2420.13C336.605 2420.13 334.366 2417.89 334.366 2415.13C334.366 2412.37 336.605 2410.13 339.366 2410.13C342.128 2410.13 344.366 2412.37 344.366 2415.13Z" fill="#DBF4FF"/>
<path d="M711.366 2530.13C711.366 2532.89 709.128 2535.13 706.366 2535.13C703.605 2535.13 701.366 2532.89 701.366 2530.13C701.366 2527.37 703.605 2525.13 706.366 2525.13C709.128 2525.13 711.366 2527.37 711.366 2530.13Z" fill="#DBF4FF"/>
<path d="M1464.28 2745.21C1472.44 2749.1 1476.01 2759.39 1468.69 2764.69C1467.91 2765.26 1467.1 2765.79 1466.26 2766.29C1460.7 2769.6 1454.28 2771.19 1447.82 2770.86C1441.36 2770.52 1435.14 2768.28 1429.95 2764.41C1424.76 2760.54 1420.84 2755.22 1418.67 2749.12C1416.51 2743.02 1416.2 2736.42 1417.79 2730.14C1419.38 2723.87 1422.8 2718.21 1427.6 2713.87C1432.41 2709.54 1438.39 2706.73 1444.8 2705.8C1445.76 2705.66 1446.73 2705.56 1447.7 2705.51C1456.72 2705.01 1460.43 2715.25 1456.55 2723.41V2723.41C1452.66 2731.56 1456.13 2741.33 1464.28 2745.21V2745.21Z" fill="#2C7CE6" fill-opacity="0.55"/>
<path d="M1114.91 2626.18C1120.23 2621.48 1120.78 2613.06 1114.4 2609.93V2609.93C1110.55 2608.04 1106.35 2606.93 1102.06 2606.66C1097.78 2606.38 1093.48 2606.96 1089.41 2608.35C1085.34 2609.74 1081.59 2611.92 1078.37 2614.76C1075.14 2617.6 1072.51 2621.05 1070.62 2624.91C1068.73 2628.76 1067.61 2632.96 1067.34 2637.25C1067.07 2641.53 1067.65 2645.83 1069.04 2649.9V2649.9C1071.33 2656.62 1079.76 2657.14 1085.09 2652.45L1100 2639.31L1114.91 2626.18Z" fill="#2C7CE6" fill-opacity="0.55"/>
<path d="M1142.82 2585.28C1142.82 2587.08 1141.35 2588.55 1139.55 2588.55C1137.74 2588.55 1136.28 2587.08 1136.28 2585.28C1136.28 2583.47 1137.74 2582 1139.55 2582C1141.35 2582 1142.82 2583.47 1142.82 2585.28Z" fill="#DBF4FF"/>
<path d="M1418.34 2709.62C1418.34 2711.43 1416.87 2712.89 1415.06 2712.89C1413.26 2712.89 1411.79 2711.43 1411.79 2709.62C1411.79 2707.81 1413.26 2706.35 1415.06 2706.35C1416.87 2706.35 1418.34 2707.81 1418.34 2709.62Z" fill="#DBF4FF"/>
<path fill-rule="evenodd" clip-rule="evenodd" d="M1256.54 2912.83C1256.54 2912.83 1256.54 2912.83 1256.22 2913.4C1255.9 2913.97 1255.9 2913.97 1255.9 2913.97L1255.87 2913.95L1255.79 2913.9C1255.71 2913.86 1255.6 2913.8 1255.46 2913.72C1255.17 2913.55 1254.74 2913.3 1254.19 2912.98C1253.07 2912.33 1251.46 2911.37 1249.42 2910.13C1245.35 2907.64 1239.61 2904.02 1232.93 2899.46C1219.58 2890.36 1202.47 2877.53 1187.46 2862.66C1172.45 2847.79 1159.48 2830.82 1154.51 2813.41C1152.02 2804.7 1151.53 2795.86 1153.8 2787.13C1156.07 2778.4 1161.1 2769.82 1169.58 2761.6C1186.22 2745.46 1190.91 2726.64 1188.58 2707.44C1186.25 2688.21 1176.88 2668.59 1165.38 2650.94C1153.88 2633.31 1140.27 2617.7 1129.54 2606.49C1124.18 2600.89 1119.53 2596.4 1116.23 2593.3C1114.58 2591.75 1113.26 2590.55 1112.36 2589.74C1111.91 2589.34 1111.56 2589.03 1111.33 2588.82C1111.21 2588.72 1111.12 2588.64 1111.06 2588.59L1110.99 2588.53L1110.97 2588.51C1110.97 2588.51 1110.97 2588.51 1111.4 2588.02C1111.59 2587.79 1111.7 2587.67 1111.76 2587.6C1111.83 2587.52 1111.83 2587.52 1111.83 2587.52L1111.83 2587.53L1111.85 2587.54L1111.92 2587.6C1111.98 2587.66 1112.07 2587.74 1112.19 2587.84C1112.43 2588.05 1112.78 2588.36 1113.23 2588.77C1114.14 2589.59 1115.46 2590.79 1117.12 2592.34C1120.44 2595.45 1125.1 2599.97 1130.49 2605.59C1141.25 2616.83 1154.91 2632.5 1166.47 2650.23C1178.03 2667.95 1187.52 2687.76 1189.88 2707.28C1192.25 2726.83 1187.46 2746.08 1170.49 2762.54C1162.16 2770.62 1157.27 2779 1155.07 2787.46C1152.86 2795.93 1153.33 2804.52 1155.77 2813.05C1160.65 2830.13 1173.43 2846.91 1188.38 2861.73C1203.31 2876.53 1220.35 2889.3 1233.67 2898.38C1240.33 2902.92 1246.05 2906.53 1250.1 2909.01C1252.13 2910.25 1253.74 2911.2 1254.85 2911.85C1255.4 2912.17 1255.82 2912.42 1256.11 2912.58C1256.25 2912.66 1256.36 2912.72 1256.43 2912.76L1256.52 2912.81L1256.54 2912.82L1256.54 2912.83Z" fill="url(#paint15_linear_720_767)"/>
<path d="M1184.64 2728.78C1185.73 2727.35 1187.78 2727.07 1189.22 2728.16C1190.66 2729.25 1190.94 2731.31 1189.85 2732.74C1188.76 2734.18 1186.7 2734.46 1185.26 2733.37C1183.82 2732.28 1183.54 2730.22 1184.64 2728.78Z" fill="#DBF4FF"/>
<path d="M1246.87 2907.58C1247.96 2906.14 1250.02 2905.86 1251.46 2906.95C1252.89 2908.04 1253.17 2910.1 1252.08 2911.53C1250.99 2912.97 1248.94 2913.25 1247.5 2912.16C1246.06 2911.07 1245.78 2909.01 1246.87 2907.58Z" fill="#DBF4FF"/>
<path d="M1149.36 2712.89C1149.36 2714.7 1147.9 2716.16 1146.09 2716.16C1144.29 2716.16 1142.82 2714.7 1142.82 2712.89C1142.82 2711.08 1144.29 2709.62 1146.09 2709.62C1147.9 2709.62 1149.36 2711.08 1149.36 2712.89Z" fill="#DBF4FF"/>
<path d="M1303.81 2677.55C1303.81 2679.36 1302.34 2680.82 1300.54 2680.82C1298.73 2680.82 1297.26 2679.36 1297.26 2677.55C1297.26 2675.74 1298.73 2674.28 1300.54 2674.28C1302.34 2674.28 1303.81 2675.74 1303.81 2677.55Z" fill="#DBF4FF"/>
<path fill-rule="evenodd" clip-rule="evenodd" d="M1377.69 2609.38C1369.21 2610.81 1360.81 2614.99 1352.71 2622.73C1336.17 2638.52 1317.75 2642.11 1299.48 2638.6C1281.25 2635.09 1263.18 2624.52 1247.21 2612.04C1231.24 2599.56 1217.32 2585.12 1207.41 2573.81C1202.45 2568.15 1198.48 2563.28 1195.76 2559.81C1194.4 2558.08 1193.35 2556.7 1192.63 2555.76C1192.28 2555.28 1192.01 2554.92 1191.82 2554.67C1191.73 2554.55 1191.66 2554.45 1191.62 2554.39L1191.56 2554.32L1191.55 2554.29C1191.55 2554.29 1191.55 2554.29 1192.08 2553.91C1192.61 2553.52 1192.61 2553.52 1192.61 2553.53L1192.61 2553.53L1192.62 2553.55L1192.67 2553.62C1192.72 2553.68 1192.79 2553.77 1192.88 2553.89C1193.06 2554.14 1193.33 2554.5 1193.68 2554.97C1194.39 2555.91 1195.43 2557.28 1196.79 2559C1199.5 2562.45 1203.45 2567.31 1208.39 2572.95C1218.28 2584.22 1232.13 2598.6 1248.02 2611.01C1263.91 2623.44 1281.79 2633.86 1299.73 2637.31C1317.63 2640.75 1335.6 2637.25 1351.8 2621.78C1360.07 2613.89 1368.7 2609.57 1377.47 2608.09C1386.25 2606.61 1395.12 2607.98 1403.86 2611.38C1421.32 2618.17 1438.36 2633.11 1453.29 2649.93C1468.23 2666.76 1481.11 2685.55 1490.25 2700.12C1494.83 2707.4 1498.47 2713.64 1500.96 2718.05C1502.21 2720.26 1503.18 2722.01 1503.83 2723.21C1504.15 2723.81 1504.4 2724.27 1504.57 2724.59C1504.65 2724.74 1504.71 2724.86 1504.76 2724.94L1504.82 2725.06L1504.82 2725.06C1504.82 2725.06 1504.82 2725.07 1504.24 2725.37C1503.89 2725.55 1503.76 2725.62 1503.7 2725.65C1503.66 2725.67 1503.66 2725.67 1503.66 2725.67L1503.66 2725.66L1503.64 2725.64L1503.6 2725.55C1503.56 2725.48 1503.49 2725.36 1503.41 2725.2C1503.25 2724.89 1503 2724.43 1502.68 2723.84C1502.03 2722.64 1501.07 2720.9 1499.83 2718.7C1497.34 2714.3 1493.71 2708.08 1489.14 2700.81C1480.02 2686.28 1467.18 2667.56 1452.31 2650.8C1437.43 2634.03 1420.56 2619.28 1403.39 2612.6C1394.81 2609.26 1386.18 2607.95 1377.69 2609.38Z" fill="url(#paint16_linear_720_767)"/>
<path d="M1218.39 2579.42C1218.39 2581.23 1216.93 2582.69 1215.12 2582.69C1213.31 2582.69 1211.85 2581.23 1211.85 2579.42C1211.85 2577.61 1213.31 2576.15 1215.12 2576.15C1216.93 2576.15 1218.39 2577.61 1218.39 2579.42Z" fill="#DBF4FF"/>
</g>
<defs>
<linearGradient id="paint0_linear_720_767" x1="975.126" y1="1315.01" x2="-386.813" y2="2233.1" gradientUnits="userSpaceOnUse">
<stop stop-color="#C2E1FF"/>
<stop offset="0.354016" stop-color="#DBF4FF" stop-opacity="0.978125"/>
<stop offset="0.776558" stop-color="white"/>
</linearGradient>
<linearGradient id="paint1_linear_720_767" x1="233" y1="56" x2="233" y2="619" gradientUnits="userSpaceOnUse">
<stop stop-color="#FCF9F2"/>
<stop offset="1" stop-color="#FCF9F2" stop-opacity="0"/>
</linearGradient>
<linearGradient id="paint2_linear_720_767" x1="168" y1="3287" x2="168" y2="3850" gradientUnits="userSpaceOnUse">
<stop stop-color="#FCF9F2"/>
<stop offset="1" stop-color="#FCF9F2" stop-opacity="0"/>
</linearGradient>
<linearGradient id="paint3_linear_720_767" x1="1553.52" y1="1629.9" x2="990.696" y2="1644.02" gradientUnits="userSpaceOnUse">
<stop stop-color="#FCF9F2"/>
<stop offset="1" stop-color="#FCF9F2" stop-opacity="0"/>
</linearGradient>
<linearGradient id="paint4_linear_720_767" x1="377.866" y1="2308.2" x2="-106.639" y2="2594.94" gradientUnits="userSpaceOnUse">
<stop stop-color="#2C7CE6" stop-opacity="0.55"/>
<stop offset="1" stop-color="#FCF9F2" stop-opacity="0"/>
</linearGradient>
<linearGradient id="paint5_linear_720_767" x1="754.276" y1="480.756" x2="866.635" y2="430.747" gradientUnits="userSpaceOnUse">
<stop offset="0.1875" stop-color="#DBF4FF"/>
<stop offset="0.75" stop-color="#2C7CE6"/>
</linearGradient>
<linearGradient id="paint6_linear_720_767" x1="1117.74" y1="208.154" x2="1059.58" y2="314.052" gradientUnits="userSpaceOnUse">
<stop offset="0.1875" stop-color="#DBF4FF"/>
<stop offset="0.75" stop-color="#2C7CE6"/>
</linearGradient>
<linearGradient id="paint7_linear_720_767" x1="896.658" y1="3589.84" x2="1009.02" y2="3539.83" gradientUnits="userSpaceOnUse">
<stop offset="0.1875" stop-color="#DBF4FF"/>
<stop offset="0.75" stop-color="#2C7CE6"/>
</linearGradient>
<linearGradient id="paint8_linear_720_767" x1="1260.12" y1="3317.23" x2="1201.96" y2="3423.13" gradientUnits="userSpaceOnUse">
<stop offset="0.1875" stop-color="#DBF4FF"/>
<stop offset="0.75" stop-color="#2C7CE6"/>
</linearGradient>
<linearGradient id="paint9_linear_720_767" x1="87.2764" y1="1171.76" x2="199.635" y2="1121.75" gradientUnits="userSpaceOnUse">
<stop offset="0.1875" stop-color="#DBF4FF"/>
<stop offset="0.75" stop-color="#2C7CE6"/>
</linearGradient>
<linearGradient id="paint10_linear_720_767" x1="450.741" y1="899.154" x2="392.575" y2="1005.05" gradientUnits="userSpaceOnUse">
<stop offset="0.1875" stop-color="#DBF4FF"/>
<stop offset="0.75" stop-color="#2C7CE6"/>
</linearGradient>
<linearGradient id="paint11_linear_720_767" x1="837.658" y1="1954.84" x2="950.017" y2="1904.83" gradientUnits="userSpaceOnUse">
<stop offset="0.1875" stop-color="#DBF4FF"/>
<stop offset="0.75" stop-color="#2C7CE6"/>
</linearGradient>
<linearGradient id="paint12_linear_720_767" x1="1201.12" y1="1682.23" x2="1142.96" y2="1788.13" gradientUnits="userSpaceOnUse">
<stop offset="0.1875" stop-color="#DBF4FF"/>
<stop offset="0.75" stop-color="#2C7CE6"/>
</linearGradient>
<linearGradient id="paint13_linear_720_767" x1="217.658" y1="2709.84" x2="330.017" y2="2659.83" gradientUnits="userSpaceOnUse">
<stop offset="0.1875" stop-color="#DBF4FF"/>
<stop offset="0.75" stop-color="#2C7CE6"/>
</linearGradient>
<linearGradient id="paint14_linear_720_767" x1="581.123" y1="2437.23" x2="522.957" y2="2543.13" gradientUnits="userSpaceOnUse">
<stop offset="0.1875" stop-color="#DBF4FF"/>
<stop offset="0.75" stop-color="#2C7CE6"/>
</linearGradient>
<linearGradient id="paint15_linear_720_767" x1="1135.47" y1="2772.28" x2="1209" y2="2739.56" gradientUnits="userSpaceOnUse">
<stop offset="0.1875" stop-color="#DBF4FF"/>
<stop offset="0.75" stop-color="#2C7CE6"/>
</linearGradient>
<linearGradient id="paint16_linear_720_767" x1="1373.34" y1="2593.88" x2="1335.27" y2="2663.19" gradientUnits="userSpaceOnUse">
<stop offset="0.1875" stop-color="#DBF4FF"/>
<stop offset="0.75" stop-color="#2C7CE6"/>
</linearGradient>
<clipPath id="clip0_720_767">
<rect width="1440" height="3875" fill="white"/>
</clipPath>
</defs>
</svg>
