<svg width="41" height="38" viewBox="0 0 41 38" fill="none" xmlns="http://www.w3.org/2000/svg">
<path fill-rule="evenodd" clip-rule="evenodd" d="M11.4064 36.575C13.7192 37.525 16.2248 38 18.9231 38C20.9906 38 22.9705 37.7009 24.8628 37.1028C26.7902 36.4694 28.5248 35.625 30.0667 34.5694C30.312 34.3935 30.5047 34.1824 30.6449 33.9361C30.785 33.6898 30.8551 33.4259 30.8551 33.1444V28.0137L38.0564 37.1028C38.3718 37.4898 38.7573 37.6833 39.2128 37.6833C39.5983 37.6833 39.9838 37.5426 40.3692 37.2611C40.7897 36.9796 41 36.5574 41 35.9944C41 35.6074 40.8774 35.238 40.6321 34.8861L30.8551 22.4608C29.2782 20.8775 29.2782 20.2506 28.9628 19.9691C27.692 19.9691 28.6825 19.6524 28.9628 19.9691L25.9301 16.2017L39.6859 3.27222C40.0013 2.95556 40.159 2.58611 40.159 2.16389C40.159 1.77685 40.0013 1.425 39.6859 1.10833C39.4056 0.791668 39.0551 0.633335 38.6346 0.633335C38.2141 0.633335 37.8286 0.80926 37.4782 1.16111L18.7975 18.8906C18.5285 18.9538 18.29 19.0783 18.0821 19.2639C17.8714 19.4519 17.7311 19.6869 17.6612 19.9691L16.2423 21.3157V3.36056C17.1045 3.2313 17.9981 3.16667 18.9231 3.16667C20.5 3.16667 21.9893 3.36019 23.391 3.74722C24.7927 4.13426 26.0893 4.66204 27.2808 5.33056L27.7013 5.54167C27.8765 5.57685 28.0517 5.59444 28.2269 5.59444C28.5774 5.59444 28.9103 5.4537 29.2256 5.17222C29.541 4.85556 29.6987 4.45093 29.6987 3.95833C29.6987 3.71204 29.6286 3.48333 29.4885 3.27222C29.3833 3.02593 29.2081 2.81482 28.9628 2.63889C27.5962 1.75926 26.0368 1.10833 24.2846 0.686112C22.5675 0.228704 20.7803 0 18.9231 0C16.2248 0 13.7192 0.475 11.4064 1.425C9.09359 2.375 7.07863 3.71204 5.36154 5.43611C3.67949 7.125 2.36539 9.13056 1.41923 11.4528C0.473077 13.775 0 16.2907 0 19C0 21.7093 0.473077 24.225 1.41923 26.5472C2.36539 28.8694 3.67949 30.8926 5.36154 32.6167C7.07863 34.3056 9.09359 35.625 11.4064 36.575ZM16.2423 25.3075V34.6394C17.1045 34.7687 17.9981 34.8333 18.9231 34.8333C20.5 34.8333 22.0769 34.6046 23.6538 34.1472C25.1455 33.724 26.442 33.1651 27.5436 32.4707V23.834L26.0971 22.0083H19.7524L16.2423 25.3075ZM23.1214 18.8417H23.5882L23.3889 18.5902L23.1214 18.8417ZM10.8808 5.225C11.538 4.84087 12.2213 4.51051 12.9308 4.23391V33.7661C12.2213 33.4895 11.538 33.1591 10.8808 32.775C8.53291 31.4028 6.69316 29.5204 5.36154 27.1278C4.02991 24.7352 3.3641 22.0259 3.3641 19C3.3641 15.9741 4.02991 13.2648 5.36154 10.8722C6.69316 8.47963 8.53291 6.59722 10.8808 5.225Z" fill="#2C7CE6"/>
</svg>
