<svg width="163" height="212" viewBox="0 0 163 212" fill="none" xmlns="http://www.w3.org/2000/svg">
<path fill-rule="evenodd" clip-rule="evenodd" d="M110.609 39.8085C108.853 35.9394 107.125 32.5607 105.424 29.6725C103.723 26.7298 101.501 23.678 98.7579 20.5173C96.0147 17.3566 93.0794 14.7681 89.952 12.7518C86.8247 10.7355 82.9841 9.0734 78.4303 7.76553C73.8764 6.45765 68.8562 5.80371 63.3697 5.80371C57.4442 5.80371 52.0674 7.0026 47.2392 9.40037C42.4111 11.7981 38.4333 14.9316 35.306 18.8007C32.2335 22.6699 29.6274 27.1657 27.4876 32.2882C25.4027 37.3563 23.9214 42.4788 23.0435 47.6558C22.1657 52.7783 21.7267 57.9826 21.7267 63.2686C21.7267 68.5001 22.1931 73.7044 23.1258 78.8814C24.0585 84.0039 25.5948 89.0992 27.7345 94.1672C29.9291 99.2352 32.6176 103.677 35.7998 107.491C38.982 111.306 42.9871 114.412 47.8153 116.81C48.6856 117.227 49.5724 117.608 50.4758 117.951C50.5309 120.262 50.5792 122.634 50.6205 125.067C49.7411 124.918 48.8609 124.754 47.9799 124.575C42.6031 123.485 36.9519 121.442 31.0265 118.445C25.1558 115.447 19.9711 111.687 15.4721 107.164C11.028 102.641 7.32455 96.5922 4.36181 89.0174C1.45394 81.4426 0 72.8597 0 63.2686C0 56.3477 0.740685 49.9446 2.22205 44.0591C3.75829 38.1192 5.78831 33.0239 8.31213 28.7733C10.8359 24.5227 13.8261 20.7081 17.2826 17.3294C20.794 13.9507 24.4426 11.1987 28.2283 9.0734C32.014 6.9481 35.9918 5.20426 40.1616 3.84189C44.3862 2.42502 48.3914 1.44412 52.1771 0.899166C55.9628 0.299722 59.6937 0 63.3697 0C69.5146 0 75.3578 0.381464 80.8992 1.14439C86.4955 1.85283 92.0644 2.75199 97.6058 3.84189C103.147 4.87729 107.536 5.58573 110.773 5.96719C109.951 8.41946 109.539 11.8799 109.539 16.3485C109.539 23.7598 110.883 30.9804 113.572 38.0102C113.242 38.9911 112.255 39.5906 110.609 39.8085ZM53.035 125.441C52.9971 123.165 52.9533 120.942 52.9035 118.772C52.7735 113.112 52.6027 107.813 52.3911 102.874C52.3362 101.457 51.7053 100.258 50.4982 99.2773C49.2912 98.2419 47.5355 97.4517 45.2311 96.9067C42.9817 96.3618 41.0614 95.9803 39.4703 95.7624C37.934 95.4899 35.904 95.2446 33.3802 95.0267C33.1607 94.0458 33.051 93.3646 33.051 92.9831C33.051 92.4382 33.1607 91.8387 33.3802 91.1848C45.6701 91.6207 55.2167 91.8387 62.02 91.8387C68.8233 91.8387 78.3699 91.6207 90.6598 91.1848C90.8518 91.9477 90.9598 92.5021 90.9838 92.8478C90.9873 92.8971 90.989 92.9423 90.989 92.9831C90.989 93.5451 90.8925 94.1789 90.6997 94.8846C90.6868 94.9317 90.6735 94.979 90.6598 95.0267C90.1586 95.07 89.6758 95.1143 89.2113 95.1598C87.3372 95.3431 85.7625 95.544 84.4874 95.7624C82.9512 95.9803 81.0309 96.3618 78.7265 96.9067C76.4771 97.4517 74.7488 98.2419 73.5418 99.2773C72.3347 100.258 71.7038 101.457 71.6489 102.874C71.3895 108.74 71.1773 114.444 71.0122 119.986C70.9513 122.03 70.8969 124.053 70.8488 126.054C70.6689 133.541 70.579 140.718 70.579 147.587H72.9657L101.459 120.284L110.53 111.592L119.629 102.874C120.342 101.839 120.699 101.048 120.699 100.503C120.699 99.468 120.397 98.6233 119.793 97.9694C119.245 97.261 118.202 96.7433 116.666 96.4163C115.185 96.0348 113.676 95.7624 112.14 95.5989C111.205 95.4958 109.976 95.3818 108.452 95.257C107.56 95.184 106.567 95.1072 105.473 95.0267C105.46 94.9654 105.446 94.9053 105.434 94.8463C105.241 93.9618 105.144 93.3408 105.144 92.9831C105.144 92.9423 105.146 92.8971 105.149 92.8478C105.173 92.5021 105.281 91.9477 105.473 91.1848C117.873 91.6207 126.021 91.8387 129.916 91.8387C132.604 91.8387 140.149 91.6207 152.548 91.1848C152.768 92.0567 152.877 92.6561 152.877 92.9831C152.877 93.3646 152.768 94.0458 152.548 95.0267C150.189 95.2446 148.296 95.4626 146.87 95.6806C145.498 95.8986 143.715 96.2801 141.52 96.825C139.38 97.3155 137.323 98.0784 135.348 99.1138C133.427 100.095 131.562 101.348 129.751 102.874L87.2856 143.009L139.545 195.815C148.323 203.608 156.032 207.668 162.671 207.995C162.89 208.867 163 209.602 163 210.202C163 210.856 162.89 211.455 162.671 212C154.715 211.564 145.937 211.346 136.335 211.346C127.721 211.346 117.324 211.564 105.144 212C104.925 211.346 104.815 210.692 104.815 210.038C104.815 209.33 104.925 208.649 105.144 207.995C110.466 207.831 113.978 207.368 115.678 206.605C117.434 205.788 118.312 204.398 118.312 202.436C118.312 201.728 118.12 201.047 117.736 200.393C117.352 199.739 116.666 198.894 115.678 197.859C114.746 196.769 114.17 196.087 113.95 195.815L73.7886 154.453L70.579 154.617C70.579 166.279 70.8808 181.456 71.4843 200.147C71.5392 201.564 72.1701 202.79 73.3772 203.826C74.5842 204.807 76.3125 205.57 78.5619 206.115C80.8663 206.66 82.7866 207.068 84.3228 207.341C85.9139 207.559 87.9714 207.777 90.4952 207.995C90.7147 208.649 90.8244 209.384 90.8244 210.202C90.8244 210.638 90.7147 211.183 90.4952 211.837C81.1681 211.51 71.6215 211.346 61.8554 211.346C51.9796 211.346 42.433 211.51 33.2156 211.837C32.9961 211.183 32.8864 210.638 32.8864 210.202C32.8864 209.275 32.9961 208.54 33.2156 207.995C34.8616 207.831 36.1783 207.695 37.1659 207.586C38.1535 207.477 39.4977 207.286 41.1985 207.014C42.9542 206.741 44.3533 206.442 45.3957 206.115C46.493 205.733 47.6178 205.27 48.77 204.725C49.9221 204.18 50.7726 203.526 51.3212 202.763C51.9247 202 52.2265 201.128 52.2265 200.147C52.8849 183.09 53.2141 165.897 53.2141 148.568C53.2141 140.331 53.1544 132.622 53.035 125.441ZM92.5196 97.2666L90.8684 97.4093C90.2887 97.4593 89.7364 97.5106 89.2113 97.5632V112.314C85.8342 116.136 80.5738 118.591 73.4303 119.677C73.367 121.781 73.3104 123.861 73.2606 125.917C78.5619 125.566 83.4673 124.901 87.9769 123.921C90.6433 123.342 93.456 122.633 96.415 121.795L109.916 108.857C109.239 105.469 108.787 101.739 108.559 97.6656C107.601 97.586 106.514 97.5013 105.296 97.4117L103.511 97.2804L103.123 95.5455C102.908 94.5833 102.736 93.6617 102.736 92.9831C102.736 92.3194 102.926 91.446 103.138 90.6048L103.61 88.7263L105.559 88.7948C106.528 88.8288 107.47 88.8616 108.387 88.8929V79.1266C108.387 77.9822 108.853 76.9741 109.786 76.1021C110.719 75.1757 111.761 74.4673 112.913 73.9768C114.12 73.4864 115.711 73.0504 117.687 72.669C119.717 72.233 121.363 71.9333 122.624 71.7698C123.886 71.6063 125.477 71.4428 127.398 71.2793C127.672 70.1894 127.809 69.5355 127.809 69.3175C127.809 69.154 127.672 68.5274 127.398 67.4375C115.108 67.8734 105.561 68.0914 98.7579 68.0914C92.0644 68.0914 82.5177 67.8734 70.1181 67.4375C69.8987 68.3094 69.789 68.9361 69.789 69.3175C69.789 69.7535 69.8987 70.4074 70.1181 71.2793C72.0384 71.4428 73.6295 71.6063 74.8914 71.7698C76.1533 71.9333 77.7719 72.233 79.747 72.669C81.7771 73.0504 83.3956 73.4864 84.6026 73.9768C85.8097 74.4673 86.8796 75.1757 87.8123 76.1021C88.745 76.9741 89.2113 77.9822 89.2113 79.1266V88.8426C89.6617 88.827 90.1158 88.811 90.5739 88.7948L92.5227 88.7256L92.9957 90.6048C93.2075 91.446 93.3968 92.3194 93.3968 92.9831C93.3968 93.8632 93.2373 94.7717 92.975 95.6837L92.5196 97.2666Z" fill="#6D493B"/>
</svg>
