<svg width="1585" height="3457" viewBox="0 0 1585 3457" fill="none" xmlns="http://www.w3.org/2000/svg">
<rect x="7" y="2372" width="1561" height="1085" fill="#FCF9F2"/>
<path fill-rule="evenodd" clip-rule="evenodd" d="M1571.33 2539.59L1506.52 2571.46C1442.73 2603.31 1313.09 2666.05 1183.35 2644.78C1052.6 2623.52 921.735 2518.26 790.563 2466.01C660.423 2414.75 530.992 2416.48 400.849 2441.22C271.725 2465.94 141.889 2513.68 77.9903 2537.54L13.059 2560.41L9.99933 2331.43L75.2246 2330.56C139.431 2329.7 269.881 2327.96 399.312 2326.23C529.763 2324.48 659.194 2322.75 788.626 2321.02C919.076 2319.28 1048.51 2317.55 1178.96 2315.81C1308.39 2314.08 1438.84 2312.34 1503.05 2311.48L1568.27 2310.61L1571.33 2539.59Z" fill="#C19B87"/>
<rect x="9.99609" y="1495" width="1561" height="836" fill="#C19B87"/>
<path fill-rule="evenodd" clip-rule="evenodd" d="M1576.68 1719.25L1511.59 1726.4C1446.51 1733.55 1316.34 1747.85 1185.51 1726.15C1054.69 1704.46 923.214 1646.77 791.955 1601.08C660.696 1555.39 529.655 1521.7 399.922 1560C270.19 1598.3 141.765 1708.58 77.5528 1763.72L13.3406 1818.87L6.79931 1458.92L71.9927 1457.77C137.186 1456.62 267.573 1454.32 397.96 1452.02C528.347 1449.71 658.734 1447.41 789.121 1445.11C919.508 1442.81 1049.89 1440.5 1180.28 1438.2C1310.67 1435.9 1441.06 1433.6 1506.25 1432.44L1571.44 1431.29L1576.68 1719.25Z" fill="#FCF9F2"/>
<rect x="9.99121" y="350" width="1564" height="1204" fill="#FCF9F2"/>
<path fill-rule="evenodd" clip-rule="evenodd" d="M1579.33 422.247L1513.16 487.373C1446.95 555.364 1313.6 685.605 1181.71 775.751C1049.87 863.033 917.512 907.333 786.965 882.892C655.411 858.44 525.631 768.111 395.351 720.753C264.065 673.383 133.251 671.86 67.8437 671.098L2.43676 670.336L10.2428 0.000129635L75.6497 0.761788C141.057 1.52345 271.871 3.04677 403.691 4.5818C534.505 6.10512 665.319 7.62844 797.139 9.16348C927.953 10.6868 1059.77 12.2218 1190.59 13.7452C1321.4 15.2685 1453.22 16.8035 1518.63 17.5652L1584.04 18.3268L1579.33 422.247Z" fill="#C19B87"/>
</svg>
