<svg width="83" height="83" viewBox="0 0 83 83" fill="none" xmlns="http://www.w3.org/2000/svg">
<path d="M42.1647 49.044C42.4767 49.044 42.7167 49.2 42.8847 49.512C43.0767 49.8 43.1727 50.172 43.1727 50.628C43.1727 51.18 43.0887 51.612 42.9207 51.924C42.7527 52.236 42.4887 52.512 42.1287 52.752C40.7127 53.688 38.4567 55.224 35.3607 57.36C34.4247 62.328 33.2127 66.24 31.7247 69.096C30.2367 71.952 28.3527 73.38 26.0727 73.38C24.8487 73.38 23.8527 72.996 23.0847 72.228C22.3167 71.484 21.9327 70.5 21.9327 69.276C21.9327 68.148 22.1847 67.008 22.6887 65.856C23.1927 64.704 24.1287 63.372 25.4967 61.86C26.8887 60.348 28.8447 58.62 31.3647 56.676L31.4727 55.992C29.5767 56.784 27.7167 57.18 25.8927 57.18C23.2047 57.18 20.8407 56.664 18.8007 55.632C16.7607 54.576 15.1767 53.088 14.0487 51.168C12.9207 49.248 12.3567 47.016 12.3567 44.472C12.3567 40.92 13.0287 37.788 14.3727 35.076C15.7167 32.34 17.5647 30.228 19.9167 28.74C22.2927 27.228 24.9447 26.472 27.8727 26.472C30.6807 26.472 32.7807 27.132 34.1727 28.452C35.5887 29.748 36.2967 31.476 36.2967 33.636C36.2967 35.052 36.0327 36.192 35.5047 37.056C35.0007 37.896 34.2687 38.316 33.3087 38.316C32.6607 38.316 32.1327 38.16 31.7247 37.848C31.3407 37.536 31.1487 37.104 31.1487 36.552C31.1487 36.312 31.1967 35.904 31.2927 35.328C31.4367 34.656 31.5087 34.128 31.5087 33.744C31.5087 32.736 31.1967 31.956 30.5727 31.404C29.9727 30.852 28.9527 30.576 27.5127 30.576C25.7607 30.576 24.1287 31.08 22.6167 32.088C21.1287 33.096 19.9287 34.608 19.0167 36.624C18.1047 38.616 17.6487 41.016 17.6487 43.824C17.6487 46.704 18.4287 48.936 19.9887 50.52C21.5727 52.08 23.8527 52.86 26.8287 52.86C28.4847 52.86 30.2127 52.488 32.0127 51.744L32.5167 47.352H28.8447C28.1727 47.352 27.6567 47.196 27.2967 46.884C26.9367 46.548 26.7567 46.008 26.7567 45.264C26.7567 44.592 26.9367 44.064 27.2967 43.68C27.6567 43.296 28.1367 43.104 28.7367 43.104H35.4687C35.9967 43.104 36.4287 43.284 36.7647 43.644C37.1247 43.98 37.2687 44.472 37.1967 45.12C37.1247 45.888 36.8847 47.628 36.4767 50.34L36.0807 53.076C38.0007 51.636 39.7527 50.388 41.3367 49.332C41.6487 49.14 41.9247 49.044 42.1647 49.044ZM26.4687 69.888C27.0927 69.888 27.7767 69.18 28.5207 67.764C29.2647 66.348 29.9607 64.068 30.6087 60.924C28.7847 62.484 27.4647 63.888 26.6487 65.136C25.8567 66.408 25.4607 67.524 25.4607 68.484C25.4607 69.42 25.7967 69.888 26.4687 69.888ZM76.6004 48.972C76.9124 48.972 77.1524 49.116 77.3204 49.404C77.5124 49.692 77.6084 50.088 77.6084 50.592C77.6084 51.528 77.3804 52.272 76.9244 52.824C75.7724 54.216 74.6084 55.296 73.4324 56.064C72.2564 56.808 70.8644 57.18 69.2564 57.18C67.4804 57.18 66.0284 56.664 64.9004 55.632C63.7724 54.576 62.7164 52.944 61.7324 50.736C61.0124 49.152 60.4124 47.976 59.9324 47.208C59.4764 46.416 59.0204 45.864 58.5644 45.552C58.1084 45.216 57.5324 45.012 56.8364 44.94L56.4404 47.604C55.9364 51.036 54.9524 53.508 53.4884 55.02C52.0484 56.532 50.0564 57.288 47.5124 57.288C45.8564 57.288 44.3804 56.892 43.0844 56.1C41.8124 55.284 40.9244 54.252 40.4204 53.004C40.2524 52.572 40.1684 52.104 40.1684 51.6C40.1684 50.88 40.3364 50.256 40.6724 49.728C41.0084 49.2 41.4404 48.936 41.9684 48.936C42.2804 48.936 42.5444 49.02 42.7604 49.188C42.9764 49.332 43.1804 49.596 43.3724 49.98C44.1164 51.372 44.7644 52.344 45.3164 52.896C45.8924 53.448 46.6004 53.724 47.4404 53.724C48.4004 53.724 49.2164 53.292 49.8884 52.428C50.5844 51.54 51.0764 50.184 51.3644 48.36L51.8684 44.94H51.2924C50.7404 44.94 50.3084 44.784 49.9964 44.472C49.6844 44.16 49.5284 43.728 49.5284 43.176C49.5284 42.552 49.6844 42.06 49.9964 41.7C50.3324 41.316 50.7404 41.124 51.2204 41.124H52.4084C52.5764 39.948 52.6964 39.132 52.7684 38.676L53.8844 30.576C53.2604 30.504 52.6724 30.468 52.1204 30.468C50.0804 30.468 48.5324 30.828 47.4764 31.548C46.4204 32.244 45.8924 33.252 45.8924 34.572C45.8924 35.172 45.9524 35.664 46.0724 36.048C46.2164 36.408 46.3964 36.816 46.6124 37.272C46.7084 37.464 46.7564 37.68 46.7564 37.92C46.7564 38.448 46.5044 38.916 46.0004 39.324C45.5204 39.708 44.9804 39.9 44.3804 39.9C43.6124 39.9 43.0484 39.564 42.6884 38.892C41.9684 37.62 41.6084 36.252 41.6084 34.788C41.6084 33.276 42.0164 31.896 42.8324 30.648C43.6724 29.4 44.9324 28.404 46.6124 27.66C48.2924 26.892 50.3684 26.508 52.8404 26.508C53.9204 26.508 54.9044 26.568 55.7924 26.688C56.7044 26.808 57.7004 27.036 58.7804 27.372C59.9564 27.732 60.5444 28.404 60.5444 29.388C60.5444 30.708 59.9804 31.368 58.8524 31.368L57.4484 41.052C60.2564 40.764 62.5364 39.564 64.2884 37.452C66.0644 35.316 67.5404 32.424 68.7164 28.776C68.9324 28.104 69.2924 27.588 69.7964 27.228C70.3244 26.868 70.9844 26.688 71.7764 26.688C72.4484 26.688 72.9644 26.844 73.3244 27.156C73.7084 27.444 73.9004 27.864 73.9004 28.416C73.9004 28.584 73.8524 28.86 73.7564 29.244C72.5564 33.204 70.8404 36.348 68.6084 38.676C66.3764 41.004 63.9404 42.552 61.3004 43.32C62.2124 43.536 62.9564 43.86 63.5324 44.292C64.1324 44.724 64.6364 45.264 65.0444 45.912C65.4524 46.536 65.9204 47.412 66.4484 48.54C67.1924 50.124 67.8884 51.252 68.5364 51.924C69.1844 52.572 69.9404 52.896 70.8044 52.896C71.5724 52.896 72.3044 52.644 73.0004 52.14C73.6964 51.612 74.5724 50.724 75.6284 49.476C75.9164 49.14 76.2404 48.972 76.6004 48.972Z" fill="#6D493B"/>
</svg>
